/* XPM */
static char *Free_Converter_com_ulord64_68304814[] = {
/* columns rows colors chars-per-pixel */
"65 65 2 1 ",
"  c #505A76",
". c None",
/* pixels */
"....................... .........................................",
".....................     .......................................",
"....................  ...   .....................................",
"..................  .......  ....................................",
"..................  ......   ....................................",
"..................  ....     ....................................",
"..................  ...      ....................................",
"..................  ...      ....................................",
"..................  ...      ....................................",
"..................  ...      ....................................",
"..................  ...      ....................................",
"..................  ...      .............  .....................",
"..................  ...      ...........      ...................",
"..................  ...      .........          .................",
"..................  ...      ..........          ................",
"..................  ...      ............        ................",
"..................  ...      .............       ................",
"..................  ...      ..............      ................",
"..................  ...      ..............      ................",
"..................  ...      ..............      ................",
"..................  ...      ..............      ................",
"..................  ...      ..............      ................",
"..................  ...      ..............      ................",
"..................  ...      ..............      ................",
"..................  ...      ..............      ................",
"..................  ....   ................      ................",
"..................  ..   ...         ......      ................",
"................... .  ..         .. ......      ................",
"...................   ..        .... ......      ................",
"...................  .        .....  ......     .................",
"................... .       ....... ......      .................",
".....................      ........ ......      .................",
"....................      ........  ......      .................",
"....................      .......  ......      ..................",
"...................      .......  .......      ..................",
"...................     .......  .......       ..................",
"..................      ......  ........       ..................",
"..................      ...... ........      . ..................",
"..................     ......  .......      .. ..................",
"..................     ...... .......      ... ..................",
"..................     ...... ......      .... ..................",
".................      ...... ....        .... ..................",
".................      ......             .... ..................",
".................      .............      .... ..................",
".................      .............      .... ..................",
".................      .............      .... ..................",
".................      .............      .... ..................",
".................      .............      .... ..................",
".................      .............      .... ..................",
".................     ..............      .... ..................",
".................     ..............      .... ..................",
".................     ..............      .... ..................",
".................     ..............      .... ..................",
".................     ..............      .... ..................",
".................     ..............      .... ..................",
".................     ..............      .... ..................",
"...................    .............      .... ..................",
"..................... ..............      .... ..................",
"....................................      .... ..................",
"....................................      .... ..................",
"....................................      .... ..................",
"....................................      .... ..................",
".....................................     ..   ..................",
".......................................      ....................",
".........................................  ......................"
};
