/* XPM */
static char *Free_Converter_com_ulord32_19674814[] = {
/* columns rows colors chars-per-pixel */
"33 33 2 1 ",
"  c #505A76",
". c None",
/* pixels */
".................................",
".......... .  ...................",
"......... ...  ..................",
"......... ..   ..................",
"......... ..   ..................",
"......... ..   ..................",
"......... ..   .....   ..........",
"......... ..   ....     .........",
"......... ..   ......    ........",
"......... ..   ......    ........",
"......... ..   ......    ........",
"......... ..   ......    ........",
"......... ..   ......    ........",
"......... .       ...   .........",
".........       .. ..   .........",
"..........     ......   .........",
"..........   .... ...   .........",
".........    ... ...    .........",
".........   ... ....    .........",
".........   .......   . .........",
".........   .. ...   .. .........",
".........   ..       .. .........",
"........    ......   .. .........",
"........   .......   .. .........",
"........   .......   .. .........",
"........   .......   .. .........",
"........   .......   .. .........",
"........   .......   .. .........",
".........  .......   .. .........",
"..................   .. .........",
"..................   .. .........",
"..................   . ..........",
"....................  ..........."
};
