/* XPM */
static char *Free_Converter_com_ulord128_3064814[] = {
/* columns rows colors chars-per-pixel */
"129 129 2 1 ",
"  c #505A76",
". c None",
/* pixels */
".................................................................................................................................",
"............................................    .................................................................................",
"..........................................         ..............................................................................",
"........................................     ...     ............................................................................",
".......................................    .......     ..........................................................................",
".....................................    ...........     ........................................................................",
"....................................   ...............   ........................................................................",
"....................................  ...............    ........................................................................",
"....................................  .............      ........................................................................",
"....................................  ............       ........................................................................",
"....................................  ..........         ........................................................................",
"....................................  ........           ........................................................................",
"....................................  ........           ........................................................................",
"....................................  ........           ........................................................................",
"....................................  ........           ........................................................................",
"....................................  ........           ........................................................................",
"....................................  ........           ........................................................................",
"....................................  ........           ........................................................................",
"....................................  ........           ........................................................................",
"....................................  ........           ........................................................................",
"....................................  ........           ........................................................................",
"....................................  ........           ........................................................................",
"....................................  ........           ...........................    .........................................",
"....................................  ........           .........................       ........................................",
"....................................  ........           .......................           ......................................",
"....................................  ........           .....................               ....................................",
"....................................  ........           ...................                   ..................................",
"....................................  ........           ...................                    .................................",
"....................................  ........           .....................                  .................................",
"....................................  ........           ......................                 .................................",
"....................................  ........           ........................               .................................",
"....................................  ........           ..........................             .................................",
"....................................  ........           ............................           .................................",
"....................................  ........           ............................           .................................",
"....................................  ........           ............................           .................................",
"....................................  ........           ............................           .................................",
"....................................  ........           ............................           .................................",
"....................................  ........           ............................           .................................",
"....................................  ........           ............................           .................................",
"....................................  ........           ............................           .................................",
"....................................  ........           ............................           .................................",
"....................................  ........           ............................           .................................",
"....................................  ........           ............................           .................................",
"....................................  ........           ............................           .................................",
"....................................  ........           ............................           .................................",
"....................................  ........           ............................           .................................",
"....................................  ........           ............................           .................................",
"....................................  ........           ............................           .................................",
"....................................  ........           ............................           .................................",
"....................................  ........           ............................           .................................",
"....................................  ........      .................................           .................................",
"....................................  .......     ...................................           .................................",
"....................................  ......    ........                .............           .................................",
"....................................  .....   .......                    ............           .................................",
".....................................  ...   .....                .....  ............           .................................",
".....................................  ..   ....                .......  ............           .................................",
".....................................  .  ....                .........  ............           .................................",
".....................................     ...               ..........   ............           .................................",
"......................................   ...              ............  ............            .................................",
"......................................  ...              .............  ............            .................................",
"...................................... ...              ..............  ............           ..................................",
".........................................             ...............  .............           ..................................",
".........................................            ................  .............           ..................................",
"........................................            ................  .............            ..................................",
".......................................             ...............   .............           ...................................",
".......................................            ................  .............            ...................................",
"......................................            ................  ..............           ....................................",
"......................................           ................   ..............           ....................................",
"......................................           ..............    ..............            ....................................",
".....................................           ..............   ................           .....................................",
".....................................           .............   ................            .....................................",
".....................................          ..............  .................            .....................................",
"....................................           .............  .................             .....................................",
"....................................          .............   ................           ..  ....................................",
"....................................          .............  .................           ..  ....................................",
"...................................           ............   ................           ...  ....................................",
"...................................          .............  ................           ....  ....................................",
"...................................          .............  ...............           .....  ....................................",
"...................................          ............  ...............           ......  ....................................",
"...................................          ............  ..............          ........  ....................................",
"..................................           ............  ............            ........  ....................................",
"..................................           ............  ...........             ........  ....................................",
"..................................           ............  .........               ........  ....................................",
"..................................           ............  .....                   ........  ....................................",
"..................................           ............             ..           ........  ....................................",
"..................................          ............................           ........  ....................................",
"..................................          ............................           ........  ....................................",
"..................................          ............................           ........  ....................................",
"..................................          ............................           ........  ....................................",
"..................................          ............................           ........  ....................................",
".................................           ............................           ........  ....................................",
".................................           ............................           ........  ....................................",
".................................           ............................           ........  ....................................",
".................................           ............................           ........  ....................................",
".................................           ............................           ........  ....................................",
".................................           ............................           ........  ....................................",
".................................           ............................           ........  ....................................",
".................................           ............................           ........  ....................................",
".................................           ............................           ........  ....................................",
".................................           ............................           ........  ....................................",
".................................           ............................           ........  ....................................",
".................................           ............................           ........  ....................................",
".................................           ............................           ........  ....................................",
".................................           ............................           ........  ....................................",
".................................           ............................           ........  ....................................",
".................................           ............................           ........  ....................................",
".................................           ............................           ........  ....................................",
".................................           ............................           ........  ....................................",
".................................           ............................           ........  ....................................",
".................................           ............................           ........  ....................................",
"..................................          ............................           ........  ....................................",
".....................................       ............................           ........  ....................................",
".......................................     ............................           ........  ....................................",
".........................................   ............................           ........  ....................................",
"........................................... ............................            .......  ....................................",
"........................................................................            .......  ....................................",
"........................................................................            .......  ....................................",
"........................................................................            .......  ....................................",
"........................................................................            .......  ....................................",
"........................................................................            .......  ....................................",
"........................................................................            .......  ....................................",
"........................................................................            .......  ....................................",
"........................................................................            .......  ....................................",
".........................................................................           .....    ....................................",
"...........................................................................         ...     .....................................",
".............................................................................       .     .......................................",
"...............................................................................         .........................................",
".................................................................................     ...........................................",
"................................................................................... ............................................."
};
