/* XPM */
static char *Free_Converter_com_ulord16_36504814[] = {
/* columns rows colors chars-per-pixel */
"17 17 2 1 ",
"  c #505A76",
". c None",
/* pixels */
".................",
"..... . .........",
".....   .........",
".....   ..  .....",
".....   ...  ....",
".....   ...  ....",
".....   ...  ....",
".....     .  ....",
".....  ....  ....",
".....  . .  .....",
"..... ..   ......",
"..... ...  ......",
"..... ...  ......",
"..... ...  ......",
"..... ...  ......",
".........  ......",
"..........  ....."
};
